<svg xmlns="http://www.w3.org/2000/svg" viewBox="0 0 24.72 25.38"><defs><style>.cls-1,.cls-4{fill:#f9b916;}.cls-2{fill:#4d443c;}.cls-3{fill:#fb5845;}.cls-3,.cls-4{fill-rule:evenodd;}</style></defs><title>6_1</title><g id="Layer_2" data-name="Layer 2"><g id="Layer_1-2" data-name="Layer 1"><path class="cls-1" d="M20.41,13.85a.29.29,0,0,1-.49-.3l4.26-6.93a.29.29,0,0,1,.49.3Z"/><path class="cls-1" d="M18.52,13.89a.29.29,0,0,1-.54-.19l2.8-8a.29.29,0,0,1,.54.19Z"/><path class="cls-2" d="M14.83,25.38a.29.29,0,0,1,0-.57h4.74a.29.29,0,0,1,0,.57Z"/><path class="cls-2" d="M17.1,24.16a.29.29,0,0,1,0-.57H18.6a.29.29,0,0,1,0,.57Z"/><path class="cls-2" d="M16.15,24.85a.29.29,0,1,1,0-.57h4.66a.29.29,0,1,1,0,.57Z"/><path class="cls-3" d="M6.48,22H16.92v2.29a.76.76,0,0,1-.75.75H7.23a.76.76,0,0,1-.75-.75Z"/><path class="cls-2" d="M11.49,22.33H6.76v2a.47.47,0,0,0,.47.47h8.93a.47.47,0,0,0,.47-.47v-2Zm-5-.57H16.92a.29.29,0,0,1,.29.29v2.29a1,1,0,0,1-1,1H7.23a1,1,0,0,1-1-1V22A.29.29,0,0,1,6.48,21.76Z"/><path class="cls-4" d="M6.58,22.21H16.81c3.53-1.31,6-5,6.3-9.22H.29c.34,4.19,2.77,7.91,6.3,9.22"/><path class="cls-2" d="M10.8,22.5H6.58l-.1,0A9.38,9.38,0,0,1,2,18.9,12.24,12.24,0,0,1,0,13a.28.28,0,0,1,0,0,.29.29,0,0,1,.29-.29H23.13a.29.29,0,0,1,.26.31,12.24,12.24,0,0,1-2,5.88,9.39,9.39,0,0,1-4.43,3.58l-.12,0Zm-4.17-.57H16.76a8.83,8.83,0,0,0,4.12-3.35,11.62,11.62,0,0,0,1.91-5.3H.6a11.62,11.62,0,0,0,1.91,5.3A8.83,8.83,0,0,0,6.63,21.92Z"/><path class="cls-2" d="M5.91,20.1a.29.29,0,1,1,.32-.47l.44.28.46.25a.29.29,0,1,1-.25.51l-.49-.26-.48-.3M2.24,15a.28.28,0,1,1,.55-.16,9.29,9.29,0,0,0,1,2.23,8.64,8.64,0,0,0,1.5,1.84.28.28,0,0,1-.39.42,9.21,9.21,0,0,1-1.6-2A9.87,9.87,0,0,1,2.24,15Z"/><path class="cls-3" d="M16.7,15.07a2.39,2.39,0,1,1-2.39,2.39,2.39,2.39,0,0,1,2.39-2.39"/><path class="cls-2" d="M18.18,16a2.1,2.1,0,1,0,.61,1.49A2.09,2.09,0,0,0,18.18,16M16.7,14.78a2.67,2.67,0,1,1-1.89.78A2.66,2.66,0,0,1,16.7,14.78Z"/><path class="cls-2" d="M12.27,2a3.16,3.16,0,0,0-.38-.58,4,4,0,0,1,.31,1.3c0,.05,0,.11,0,.17A3.8,3.8,0,0,1,12,4v0q-.11.31-.24.63t-.27.6l-.09.2c-.16.36-.33.73-.47,1.12h0A3.75,3.75,0,0,0,10.72,8h0s0,.09,0,.13a2.54,2.54,0,0,0,.14.72h0a2.55,2.55,0,0,0,.33.64h0v0a3,3,0,0,1-.16-1c0-.06,0-.12,0-.19s0-.11,0-.17v0a6.28,6.28,0,0,1,.69-1.93l.29-.6h0a7.27,7.27,0,0,0,.28-.68,7,7,0,0,0,.2-.68h0a3.25,3.25,0,0,0,.06-.37,3.28,3.28,0,0,0,0-.37,3.35,3.35,0,0,0,0-.37,3.4,3.4,0,0,0-.06-.36h0A3.15,3.15,0,0,0,12.27,2M11.12,0l.31.2.3.24.15.13h0L12,.77,12.3,1v0a3.76,3.76,0,0,1,.76,1.5v0a3.92,3.92,0,0,1,.07.42,3.78,3.78,0,0,1,0,.87,3.93,3.93,0,0,1-.07.43v0a7.51,7.51,0,0,1-.22.73,7.8,7.8,0,0,1-.3.73l-.29.62a5.88,5.88,0,0,0-.64,1.75v0s0,.09,0,.14,0,.1,0,.16a2.39,2.39,0,0,0,.13.78,6.52,6.52,0,0,0,.58,1.21.29.29,0,0,1-.39.39,3.88,3.88,0,0,1-.65-.47l0,0a3.94,3.94,0,0,1-.52-.58h0a3.11,3.11,0,0,1-.4-.79h0a3.11,3.11,0,0,1-.17-.88c0-.05,0-.1,0-.15h0a4.39,4.39,0,0,1,.27-1.51c.14-.42.32-.81.49-1.18L11,5.08V5q.14-.28.26-.57c.08-.19.16-.39.23-.6h0a3.11,3.11,0,0,0,.11-.46,3.18,3.18,0,0,0,0-.49s0-.09,0-.13a3.44,3.44,0,0,0-.09-.58,3.39,3.39,0,0,0-.19-.56h0c-.09-.2-.19-.41-.3-.61s-.21-.39-.33-.58A.29.29,0,0,1,11,0h0Z"/><path class="cls-2" d="M8.61,2a3.16,3.16,0,0,0-.38-.58,4,4,0,0,1,.31,1.3c0,.05,0,.11,0,.17A3.79,3.79,0,0,1,8.37,4v0q-.11.31-.24.63t-.27.6l-.09.2c-.16.36-.33.73-.47,1.12h0A3.74,3.74,0,0,0,7.06,8h0s0,.09,0,.13a2.54,2.54,0,0,0,.14.72h0a2.55,2.55,0,0,0,.33.64h0v0A3,3,0,0,1,7.41,9a3,3,0,0,1,0-.49q0-.09,0-.19c0-.05,0-.11,0-.17v0a6.29,6.29,0,0,1,.69-1.93l.29-.6h0a7.14,7.14,0,0,0,.28-.68,6.85,6.85,0,0,0,.2-.68h0a3.35,3.35,0,0,0,.06-1.11,3.4,3.4,0,0,0-.06-.36h0A3.14,3.14,0,0,0,8.61,2M7.46,0l.31.2.3.24.15.13h0l.14.13L8.64,1v0a3.76,3.76,0,0,1,.76,1.5v0a3.88,3.88,0,0,1,0,1.73v0a7.49,7.49,0,0,1-.22.73,7.74,7.74,0,0,1-.3.73l-.29.62A5.88,5.88,0,0,0,8,8.15v0s0,.09,0,.14,0,.1,0,.16a2.37,2.37,0,0,0,.13.78,6.52,6.52,0,0,0,.58,1.21.29.29,0,0,1-.39.39,3.87,3.87,0,0,1-.65-.47l0,0a4,4,0,0,1-.52-.58h0A3.12,3.12,0,0,1,6.66,9h0a3.11,3.11,0,0,1-.17-.88c0-.05,0-.1,0-.15h0a4.38,4.38,0,0,1,.27-1.51c.14-.42.32-.81.49-1.18l.09-.19V5q.14-.28.26-.57c.08-.19.16-.39.22-.6h0a3.1,3.1,0,0,0,.15-1s0-.09,0-.13a3.42,3.42,0,0,0-.28-1.14h0c-.09-.2-.19-.41-.3-.61S7.18.64,7.07.45A.29.29,0,0,1,7.35,0h0Z"/><path class="cls-2" d="M15.84,2a3.17,3.17,0,0,0-.38-.58,4,4,0,0,1,.21.62,4,4,0,0,1,.1.68c0,.05,0,.11,0,.17A3.78,3.78,0,0,1,15.6,4v0q-.11.31-.24.63t-.27.6L15,5.5c-.16.36-.33.73-.47,1.12h0a3.76,3.76,0,0,0-.18.65,3.81,3.81,0,0,0-.06.67h0s0,.09,0,.13a2.54,2.54,0,0,0,.14.72h0a2.55,2.55,0,0,0,.33.64h0v0A3,3,0,0,1,14.64,9a3,3,0,0,1,0-.49q0-.09,0-.19c0-.05,0-.11,0-.17v0a6.29,6.29,0,0,1,.69-1.93l.29-.6h0a7.19,7.19,0,0,0,.28-.68,6.88,6.88,0,0,0,.2-.68h0a3.29,3.29,0,0,0,.08-.74,3.34,3.34,0,0,0,0-.37,3.43,3.43,0,0,0-.06-.36h0A3.14,3.14,0,0,0,15.84,2M14.69,0l.31.2.3.24.15.13h0l.14.13.26.28v0a3.76,3.76,0,0,1,.76,1.5v0a3.85,3.85,0,0,1,.07,1.29,4,4,0,0,1-.07.43v0a7.46,7.46,0,0,1-.22.73,7.71,7.71,0,0,1-.3.73l-.29.62a5.88,5.88,0,0,0-.64,1.75v0s0,.09,0,.14,0,.1,0,.16a2.39,2.39,0,0,0,.13.78,6.44,6.44,0,0,0,.26.62,6.33,6.33,0,0,0,.32.59.29.29,0,0,1-.39.39,3.87,3.87,0,0,1-.65-.47l0,0a3.92,3.92,0,0,1-.52-.58h0a3.12,3.12,0,0,1-.4-.79h0a3.11,3.11,0,0,1-.17-.88c0-.05,0-.1,0-.15h0A4.37,4.37,0,0,1,14,6.44c.14-.42.32-.81.49-1.18l.09-.19V5q.14-.28.26-.57c.08-.19.16-.39.23-.6h0a3.1,3.1,0,0,0,.15-1s0-.09,0-.13a3.42,3.42,0,0,0-.28-1.14h0c-.09-.2-.19-.41-.3-.61s-.21-.39-.33-.58A.29.29,0,0,1,14.58,0h0Z"/></g></g></svg>